<?xml version="1.0" encoding="utf-8"?>
<svg version="1.1" xmlns:xlink="http://www.w3.org/1999/xlink" width="420px" height="35px" viewBox="245 839  420 35" xmlns="http://www.w3.org/2000/svg">
  <path d="M 246 842  A 2 2 0 0 1 248 840 L 662 840  A 2 2 0 0 1 664 842 L 664 871  A 2 2 0 0 1 662 873 L 248 873  A 2 2 0 0 1 246 871 L 246 842  Z " fill-rule="nonzero" fill="#f0f0f0" stroke="none" />
  <path d="M 245.5 842  A 2.5 2.5 0 0 1 248 839.5 L 662 839.5  A 2.5 2.5 0 0 1 664.5 842 L 664.5 871  A 2.5 2.5 0 0 1 662 873.5 L 248 873.5  A 2.5 2.5 0 0 1 245.5 871 L 245.5 842  Z " stroke-width="1" stroke="#797979" fill="none" stroke-opacity="0.333333333333333" />
</svg>