<?xml version="1.0" encoding="utf-8"?>
<svg version="1.1" xmlns:xlink="http://www.w3.org/1999/xlink" width="420px" height="191px" viewBox="245 969  420 191" xmlns="http://www.w3.org/2000/svg">
  <path d="M 246 972  A 2 2 0 0 1 248 970 L 662 970  A 2 2 0 0 1 664 972 L 664 1157  A 2 2 0 0 1 662 1159 L 248 1159  A 2 2 0 0 1 246 1157 L 246 972  Z " fill-rule="nonzero" fill="#ffffff" stroke="none" />
  <path d="M 245.5 972  A 2.5 2.5 0 0 1 248 969.5 L 662 969.5  A 2.5 2.5 0 0 1 664.5 972 L 664.5 1157  A 2.5 2.5 0 0 1 662 1159.5 L 248 1159.5  A 2.5 2.5 0 0 1 245.5 1157 L 245.5 972  Z " stroke-width="1" stroke="#797979" fill="none" stroke-opacity="0.333333333333333" />
</svg>